<mxfile host="65bd71144e">
    <diagram id="c8xOtOYI2xohcxWzqiEW" name="Page-1">
        <mxGraphModel dx="1183" dy="678" grid="1" gridSize="10" guides="1" tooltips="1" connect="1" arrows="1" fold="1" page="1" pageScale="1" pageWidth="1100" pageHeight="850" math="0" shadow="0">
            <root>
                <mxCell id="0"/>
                <mxCell id="1" parent="0"/>
                <mxCell id="7" value="IDLE" style="ellipse;whiteSpace=wrap;html=1;aspect=fixed;fontSize=8;" parent="1" vertex="1">
                    <mxGeometry x="460" y="470" width="40" height="40" as="geometry"/>
                </mxCell>
                <mxCell id="79" value="" style="edgeStyle=none;html=1;fontSize=8;" parent="1" source="17" target="7" edge="1">
                    <mxGeometry relative="1" as="geometry"/>
                </mxCell>
                <mxCell id="17" value="ESC" style="ellipse;whiteSpace=wrap;html=1;aspect=fixed;fontSize=8;" parent="1" vertex="1">
                    <mxGeometry x="540" y="470" width="40" height="40" as="geometry"/>
                </mxCell>
                <mxCell id="18" value="" style="endArrow=classic;html=1;curved=1;exitX=1;exitY=0.5;exitDx=0;exitDy=0;fontSize=8;" parent="1" source="7" target="17" edge="1">
                    <mxGeometry width="50" height="50" relative="1" as="geometry">
                        <mxPoint x="875" y="770" as="sourcePoint"/>
                        <mxPoint x="925" y="720" as="targetPoint"/>
                    </mxGeometry>
                </mxCell>
                <mxCell id="25" value="ESC" style="edgeLabel;html=1;align=center;verticalAlign=middle;resizable=0;points=[];fontSize=8;" parent="18" vertex="1" connectable="0">
                    <mxGeometry x="-0.3214" y="2" relative="1" as="geometry">
                        <mxPoint x="13" y="-8" as="offset"/>
                    </mxGeometry>
                </mxCell>
                <mxCell id="19" value="" style="endArrow=classic;html=1;curved=1;exitX=0.5;exitY=1;exitDx=0;exitDy=0;entryX=0;entryY=1;entryDx=0;entryDy=0;" parent="1" source="7" target="7" edge="1">
                    <mxGeometry width="50" height="50" relative="1" as="geometry">
                        <mxPoint x="965" y="790" as="sourcePoint"/>
                        <mxPoint x="705" y="490" as="targetPoint"/>
                        <Array as="points">
                            <mxPoint x="420" y="600"/>
                        </Array>
                    </mxGeometry>
                </mxCell>
                <mxCell id="26" value="ascii" style="edgeLabel;html=1;align=center;verticalAlign=middle;resizable=0;points=[];rotation=1;fontSize=8;" parent="19" vertex="1" connectable="0">
                    <mxGeometry x="-0.4643" y="1" relative="1" as="geometry">
                        <mxPoint x="19" y="-9" as="offset"/>
                    </mxGeometry>
                </mxCell>
                <mxCell id="21" value="" style="endArrow=classic;html=1;curved=1;exitX=0;exitY=1;exitDx=0;exitDy=0;fontSize=8;" parent="1" source="7" edge="1">
                    <mxGeometry width="50" height="50" relative="1" as="geometry">
                        <mxPoint x="415" y="540" as="sourcePoint"/>
                        <mxPoint x="465" y="490" as="targetPoint"/>
                        <Array as="points">
                            <mxPoint x="350" y="520"/>
                        </Array>
                    </mxGeometry>
                </mxCell>
                <mxCell id="33" value="bell,bs,lf,vt,ff,cr" style="edgeLabel;html=1;align=center;verticalAlign=middle;resizable=0;points=[];fontSize=8;" parent="21" vertex="1" connectable="0">
                    <mxGeometry x="0.5918" y="-2" relative="1" as="geometry">
                        <mxPoint x="-18" y="16" as="offset"/>
                    </mxGeometry>
                </mxCell>
                <mxCell id="66" value="&lt;div&gt;&lt;font face=&quot;Courier New&quot;&gt;BEL&amp;nbsp; &amp;nbsp; &amp;nbsp;Bell&amp;nbsp; &amp;nbsp; &amp;nbsp; &amp;nbsp; &amp;nbsp; &amp;nbsp; &amp;nbsp; &amp;nbsp; Systemglocke.&lt;/font&gt;&lt;/div&gt;&lt;div&gt;&lt;font face=&quot;Courier New&quot;&gt;BS&amp;nbsp; &amp;nbsp; &amp;nbsp; Backspace&amp;nbsp; &amp;nbsp; &amp;nbsp; &amp;nbsp; &amp;nbsp; &amp;nbsp;Delete character to left of cursor.&lt;/font&gt;&lt;/div&gt;&lt;div&gt;&lt;font face=&quot;Courier New&quot;&gt;LF&amp;nbsp; &amp;nbsp; &amp;nbsp; Line feed&amp;nbsp; &amp;nbsp; &amp;nbsp; &amp;nbsp; &amp;nbsp; &amp;nbsp;Line feed.&lt;/font&gt;&lt;/div&gt;&lt;div&gt;&lt;font face=&quot;Courier New&quot;&gt;VT&amp;nbsp; &amp;nbsp; &amp;nbsp; Tabulator&amp;nbsp; &amp;nbsp; &amp;nbsp; &amp;nbsp; &amp;nbsp; &amp;nbsp;Vertical tabulator&lt;/font&gt;&lt;/div&gt;&lt;div&gt;&lt;font face=&quot;Courier New&quot;&gt;FF&amp;nbsp; &amp;nbsp; &amp;nbsp; Formfeed&amp;nbsp; &amp;nbsp; &amp;nbsp; &amp;nbsp; &amp;nbsp; &amp;nbsp; Form feed.&lt;/font&gt;&lt;/div&gt;&lt;div&gt;&lt;font face=&quot;Courier New&quot;&gt;CR&amp;nbsp; &amp;nbsp; &amp;nbsp; Carriage Return&amp;nbsp; &amp;nbsp; &amp;nbsp;Move cursor to the start of the line.&lt;/font&gt;&lt;/div&gt;" style="text;html=1;strokeColor=none;fillColor=none;align=left;verticalAlign=top;whiteSpace=wrap;rounded=0;fontSize=10;" parent="1" vertex="1">
                    <mxGeometry x="40" y="590" width="440" height="90" as="geometry"/>
                </mxCell>
                <mxCell id="69" value="&lt;div&gt;&lt;font face=&quot;Courier New&quot;&gt;ESC A&amp;nbsp; &amp;nbsp;Cursor up&amp;nbsp; &amp;nbsp; &amp;nbsp; &amp;nbsp; &amp;nbsp; &amp;nbsp; &amp;nbsp; &amp;nbsp; &amp;nbsp; &amp;nbsp;Move cursor one line upwards.&lt;/font&gt;&lt;/div&gt;&lt;div&gt;&lt;font face=&quot;Courier New&quot;&gt;ESC B&amp;nbsp; &amp;nbsp;Cursor down&amp;nbsp; &amp;nbsp; &amp;nbsp; &amp;nbsp; &amp;nbsp; &amp;nbsp; &amp;nbsp; &amp;nbsp; &amp;nbsp;Move cursor one line downwards.&lt;/font&gt;&lt;/div&gt;&lt;div&gt;&lt;font face=&quot;Courier New&quot;&gt;ESC C&amp;nbsp; &amp;nbsp;Cursor right&amp;nbsp; &amp;nbsp; &amp;nbsp; &amp;nbsp; &amp;nbsp; &amp;nbsp; &amp;nbsp; &amp;nbsp; Move cursor one column to the right.&lt;/font&gt;&lt;/div&gt;&lt;div&gt;&lt;font face=&quot;Courier New&quot;&gt;ESC D&amp;nbsp; &amp;nbsp;Cursor left&amp;nbsp; &amp;nbsp; &amp;nbsp; &amp;nbsp; &amp;nbsp; &amp;nbsp; &amp;nbsp; &amp;nbsp; &amp;nbsp;Move cursor one column to the left.&lt;/font&gt;&lt;/div&gt;&lt;div&gt;&lt;font face=&quot;Courier New&quot;&gt;ESC E&amp;nbsp; &amp;nbsp;Clear screen&amp;nbsp; &amp;nbsp; &amp;nbsp; &amp;nbsp; &amp;nbsp; &amp;nbsp; &amp;nbsp; &amp;nbsp; Clear screen and place cursor at top left corner.&lt;/font&gt;&lt;/div&gt;&lt;div&gt;&lt;font face=&quot;Courier New&quot;&gt;ESC H&amp;nbsp; &amp;nbsp;Cursor home&amp;nbsp; &amp;nbsp; &amp;nbsp; &amp;nbsp; &amp;nbsp; &amp;nbsp; &amp;nbsp; &amp;nbsp; &amp;nbsp;Move cursor to the upper left corner.&lt;/font&gt;&lt;/div&gt;&lt;div&gt;&lt;font face=&quot;Courier New&quot;&gt;ESC I&amp;nbsp; &amp;nbsp;Cursor up and insert&amp;nbsp; &amp;nbsp; &amp;nbsp; &amp;nbsp; Move cursor one line upwards and scroll.&lt;/font&gt;&lt;/div&gt;&lt;div&gt;&lt;font face=&quot;Courier New&quot;&gt;ESC J&amp;nbsp; &amp;nbsp;Clear to end of screen&amp;nbsp; &amp;nbsp; &amp;nbsp; Clear screen from cursor onwards.&lt;/font&gt;&lt;/div&gt;&lt;div&gt;&lt;font face=&quot;Courier New&quot;&gt;ESC K&amp;nbsp; &amp;nbsp;Clear to end of line&amp;nbsp; &amp;nbsp; &amp;nbsp; &amp;nbsp; Clear line from cursor onwards.&lt;/font&gt;&lt;/div&gt;&lt;div&gt;&lt;font face=&quot;Courier New&quot;&gt;ESC L&amp;nbsp; &amp;nbsp;Insert line&amp;nbsp; &amp;nbsp; &amp;nbsp; &amp;nbsp; &amp;nbsp; &amp;nbsp; &amp;nbsp;I&amp;nbsp; &amp;nbsp;* Insert a line.&lt;/font&gt;&lt;/div&gt;&lt;div&gt;&lt;font face=&quot;Courier New&quot;&gt;ESC M&amp;nbsp; &amp;nbsp;Delete line&amp;nbsp; &amp;nbsp; &amp;nbsp; &amp;nbsp; &amp;nbsp; &amp;nbsp; &amp;nbsp; &amp;nbsp; &amp;nbsp;* Remove line.&lt;/font&gt;&lt;/div&gt;&lt;div&gt;&lt;font face=&quot;Courier New&quot;&gt;&lt;br&gt;&lt;/font&gt;&lt;/div&gt;&lt;div&gt;&lt;font face=&quot;Courier New&quot;&gt;ESC d&amp;nbsp; &amp;nbsp;Clear to start of screen&amp;nbsp; &amp;nbsp; Clear screen up to cursor.&lt;/font&gt;&lt;/div&gt;&lt;div&gt;&lt;font face=&quot;Courier New&quot;&gt;ESC j&amp;nbsp; &amp;nbsp;Save cursor position&amp;nbsp; &amp;nbsp; &amp;nbsp; &amp;nbsp; &quot;Remember&quot; cursor.&lt;/font&gt;&lt;/div&gt;&lt;div&gt;&lt;font face=&quot;Courier New&quot;&gt;ESC k&amp;nbsp; &amp;nbsp;Restore cursor position&amp;nbsp; &amp;nbsp; &amp;nbsp;Restore cursor.&lt;/font&gt;&lt;/div&gt;&lt;div&gt;&lt;font face=&quot;Courier New&quot;&gt;ESC l&amp;nbsp; &amp;nbsp;Clear line&amp;nbsp; &amp;nbsp; &amp;nbsp; &amp;nbsp; &amp;nbsp; &amp;nbsp; &amp;nbsp; &amp;nbsp; &amp;nbsp; Clear current line.&lt;/font&gt;&lt;/div&gt;&lt;div&gt;&lt;font face=&quot;Courier New&quot;&gt;ESC o&amp;nbsp; &amp;nbsp;Clear to start of line&amp;nbsp; &amp;nbsp; &amp;nbsp; Clear current line up to cursor.&lt;/font&gt;&lt;/div&gt;&lt;div&gt;&lt;font face=&quot;Courier New&quot;&gt;ESC e&amp;nbsp; &amp;nbsp;Cur_on&amp;nbsp; &amp;nbsp; &amp;nbsp; &amp;nbsp; &amp;nbsp; &amp;nbsp; &amp;nbsp; &amp;nbsp; &amp;nbsp; &amp;nbsp; &amp;nbsp; Show cursor.&lt;/font&gt;&lt;/div&gt;&lt;div&gt;&lt;font face=&quot;Courier New&quot;&gt;ESC f&amp;nbsp; &amp;nbsp;Cur_off&amp;nbsp; &amp;nbsp; &amp;nbsp; &amp;nbsp; &amp;nbsp; &amp;nbsp; &amp;nbsp; &amp;nbsp; &amp;nbsp; &amp;nbsp; &amp;nbsp;Hide cursor.&lt;/font&gt;&lt;/div&gt;&lt;div&gt;&lt;font face=&quot;Courier New&quot;&gt;ESC &amp;lt;&amp;nbsp; &amp;nbsp;Exit VT52 mode&amp;nbsp; &amp;nbsp; &amp;nbsp; &amp;nbsp; &amp;nbsp; &amp;nbsp; &amp;nbsp; Enter VT100 mode&lt;/font&gt;&lt;/div&gt;&lt;div&gt;&lt;br&gt;&lt;/div&gt;&lt;div&gt;&lt;/div&gt;" style="text;html=1;strokeColor=none;fillColor=none;align=left;verticalAlign=top;whiteSpace=wrap;rounded=0;fontSize=10;" parent="1" vertex="1">
                    <mxGeometry x="30" y="110" width="530" height="280" as="geometry"/>
                </mxCell>
                <mxCell id="70" value="&lt;div&gt;&lt;font face=&quot;Courier New&quot;&gt;ESC Y &amp;lt;c&amp;gt;&amp;lt;f&amp;gt;&amp;nbsp; &amp;nbsp;Set cursor position&amp;nbsp; &amp;nbsp; &amp;nbsp;Position cursor.&lt;/font&gt;&lt;/div&gt;&lt;div&gt;&lt;font face=&quot;Courier New&quot;&gt;ESC Y &amp;lt;c&amp;gt;&amp;nbsp; &amp;nbsp; &amp;nbsp; Set cursor column&amp;nbsp; &amp;nbsp; &amp;nbsp; &amp;nbsp;Move to column &amp;lt;n&amp;gt;&lt;/font&gt;&lt;/div&gt;&lt;div&gt;&lt;font face=&quot;Courier New&quot;&gt;&lt;br&gt;&lt;/font&gt;&lt;/div&gt;&lt;div&gt;&lt;font face=&quot;Courier New&quot;&gt;Home is at (32,32) =&amp;gt; f=32+f; x = 32+f&lt;/font&gt;&lt;/div&gt;" style="text;html=1;strokeColor=none;fillColor=none;align=left;verticalAlign=top;whiteSpace=wrap;rounded=0;fontSize=10;" parent="1" vertex="1">
                    <mxGeometry x="620" y="580" width="370" height="70" as="geometry"/>
                </mxCell>
                <mxCell id="76" value="" style="endArrow=classic;html=1;curved=1;exitX=0;exitY=0;exitDx=0;exitDy=0;entryX=0.905;entryY=0.225;entryDx=0;entryDy=0;entryPerimeter=0;fontSize=8;" parent="1" source="17" edge="1">
                    <mxGeometry width="50" height="50" relative="1" as="geometry">
                        <mxPoint x="608.8" y="470" as="sourcePoint"/>
                        <mxPoint x="505.00000000000006" y="479" as="targetPoint"/>
                        <Array as="points">
                            <mxPoint x="543.8" y="400"/>
                        </Array>
                    </mxGeometry>
                </mxCell>
                <mxCell id="77" value="A,B,C,D,E,H,I,J,K,L,M&lt;br&gt;d,j,k,l,o,e,f&lt;br&gt;&amp;lt;" style="edgeLabel;html=1;align=center;verticalAlign=middle;resizable=0;points=[];rotation=1;fontSize=8;labelBackgroundColor=none;" parent="76" vertex="1" connectable="0">
                    <mxGeometry x="-0.4643" y="1" relative="1" as="geometry">
                        <mxPoint x="-14" y="-22" as="offset"/>
                    </mxGeometry>
                </mxCell>
                <mxCell id="78" value="ROW" style="ellipse;whiteSpace=wrap;html=1;aspect=fixed;fontSize=8;" parent="1" vertex="1">
                    <mxGeometry x="620" y="470" width="40" height="40" as="geometry"/>
                </mxCell>
                <mxCell id="80" value="" style="endArrow=classic;html=1;curved=1;exitX=1;exitY=0.5;exitDx=0;exitDy=0;entryX=0;entryY=0.5;entryDx=0;entryDy=0;fontSize=8;" parent="1" source="17" target="78" edge="1">
                    <mxGeometry width="50" height="50" relative="1" as="geometry">
                        <mxPoint x="625" y="490" as="sourcePoint"/>
                        <mxPoint x="700" y="490" as="targetPoint"/>
                    </mxGeometry>
                </mxCell>
                <mxCell id="81" value="Y" style="edgeLabel;html=1;align=center;verticalAlign=middle;resizable=0;points=[];fontSize=8;" parent="80" vertex="1" connectable="0">
                    <mxGeometry x="-0.3214" y="2" relative="1" as="geometry">
                        <mxPoint x="6" y="-8" as="offset"/>
                    </mxGeometry>
                </mxCell>
                <mxCell id="82" value="COL" style="ellipse;whiteSpace=wrap;html=1;aspect=fixed;fontSize=8;" parent="1" vertex="1">
                    <mxGeometry x="700" y="470" width="40" height="40" as="geometry"/>
                </mxCell>
                <mxCell id="84" value="" style="endArrow=classic;html=1;curved=1;exitX=1;exitY=0.5;exitDx=0;exitDy=0;entryX=0;entryY=0.5;entryDx=0;entryDy=0;fontSize=8;" parent="1" source="78" target="82" edge="1">
                    <mxGeometry width="50" height="50" relative="1" as="geometry">
                        <mxPoint x="590" y="500" as="sourcePoint"/>
                        <mxPoint x="629.9999999999999" y="500" as="targetPoint"/>
                    </mxGeometry>
                </mxCell>
                <mxCell id="85" value="ubyte" style="edgeLabel;html=1;align=center;verticalAlign=middle;resizable=0;points=[];fontSize=8;" parent="84" vertex="1" connectable="0">
                    <mxGeometry x="-0.3214" y="2" relative="1" as="geometry">
                        <mxPoint x="6" y="-8" as="offset"/>
                    </mxGeometry>
                </mxCell>
                <mxCell id="86" value="" style="endArrow=classic;html=1;curved=1;exitX=0.5;exitY=1;exitDx=0;exitDy=0;entryX=1;entryY=1;entryDx=0;entryDy=0;fontSize=8;" parent="1" source="82" target="7" edge="1">
                    <mxGeometry width="50" height="50" relative="1" as="geometry">
                        <mxPoint x="670" y="500" as="sourcePoint"/>
                        <mxPoint x="710" y="500" as="targetPoint"/>
                        <Array as="points">
                            <mxPoint x="650" y="620"/>
                        </Array>
                    </mxGeometry>
                </mxCell>
                <mxCell id="87" value="ubyte" style="edgeLabel;html=1;align=center;verticalAlign=middle;resizable=0;points=[];fontSize=8;" parent="86" vertex="1" connectable="0">
                    <mxGeometry x="-0.3214" y="2" relative="1" as="geometry">
                        <mxPoint x="37" y="-54" as="offset"/>
                    </mxGeometry>
                </mxCell>
                <mxCell id="90" value="&lt;font face=&quot;Courier New&quot;&gt;https://freemint.github.io/tos.hyp/en/VT_52_terminal.html&lt;/font&gt;" style="text;html=1;strokeColor=none;fillColor=none;align=left;verticalAlign=middle;whiteSpace=wrap;rounded=0;fontSize=10;" parent="1" vertex="1">
                    <mxGeometry x="730" y="40" width="350" height="30" as="geometry"/>
                </mxCell>
            </root>
        </mxGraphModel>
    </diagram>
</mxfile>